<svg viewBox="0 0 96 96" xmlns="http://www.w3.org/2000/svg" xmlns:xlink="http://www.w3.org/1999/xlink" id="Icons_ProfessorFemale" overflow="hidden"><style>
.MsftOfcThm_Text2_lumMod_75_lumOff_25_Fill_v2 {
 fill:#215F9A; 
}
</style>
<g id="Icons"><path d="M47 64 47 91.4 61 91.4C61 92.3 61.7 93 62.6 93L68 93C68.9 93 69.6 92.3 69.6 91.4L83.6 91.4 83.6 64 47 64ZM64.2 88.2 50.2 88.2 50.2 67.2 64.2 67.2 64.2 88.2ZM80.3 88.2 66.3 88.2 66.3 67.2 80.3 67.2 80.3 88.2Z" class="MsftOfcThm_Text2_lumMod_75_lumOff_25_Fill_v2" fill="#215F9A"/><rect x="69.6" y="72.6" width="7.5" height="1.6" class="MsftOfcThm_Text2_lumMod_75_lumOff_25_Fill_v2" fill="#215F9A"/><rect x="69.6" y="75.8" width="7.5" height="1.6" class="MsftOfcThm_Text2_lumMod_75_lumOff_25_Fill_v2" fill="#215F9A"/><rect x="69.6" y="79" width="5.2" height="1.6" class="MsftOfcThm_Text2_lumMod_75_lumOff_25_Fill_v2" fill="#215F9A"/><path d="M40.3 56.1C45.4 57.3 50.7 57.3 55.7 56.1L55.4 62 78.5 62C77.9 60.2 76.8 58.7 75.3 57.5 72.2 54.8 67.8 52.5 61.8 50.3L58.6 49C58.3 48.8 58 48.5 58 48L58 46.5C61 45.4 64.7 43.4 66.1 40.2 68.8 34.4 66.1 9.1 48.3 8.6L47.8 8.6C29.9 9.1 27.3 34.5 29.9 40.2 31.4 43.3 35 45.3 38 46.5L38 48C38 48.4 37.8 48.8 37.4 48.9L34.3 50.2 34.3 50.2C28.2 52.4 23.9 54.7 20.8 57.4 18.5 59.3 17.2 62 17.1 64.9L17.1 71.7C16.3 71.5 15.5 71.5 14.8 71.6L6.6 44.6C6.3 43.8 5.5 43.4 4.7 43.6 3.9 43.8 3.5 44.7 3.7 45.4L11.9 72.2C8.8 73.2 6.9 75 8.4 80.8 9.6 85.5 11.5 86.8 13.9 86.8 15 86.8 16 86.6 17.1 86.3 18.5 86 19.7 85.3 20.7 84.4 25.5 86.3 33.4 87.4 41.9 87.8L40.3 56.1ZM16 82.6C13 83.4 13 83.4 12.1 80 11.2 76.6 11.2 76.6 14.1 75.9L14.4 75.8C15 75.7 15.6 75.7 16.1 75.8L16.3 75.9C17.5 76.2 18.5 77.1 18.8 78.3 19.3 80.2 18 82.2 16 82.6ZM51.7 21C53.6 24.4 58.5 25.4 60 30.2L60 33C60 39.6 54.6 45 48 45 41.4 45 36 39.6 36 33L36 29.2C38.4 24.9 50.1 25.7 51.7 21ZM42 48 42 47.8C45.8 49.4 50.2 49.4 54 47.8L54 48C54 49.5 54.7 50.9 55.8 51.9 53.3 52.7 50.7 53 48 53 45.4 53 42.7 52.7 40.2 51.9 41.3 51 42 49.5 42 48Z" class="MsftOfcThm_Text2_lumMod_75_lumOff_25_Fill_v2" fill="#215F9A"/></g></svg>