<svg viewBox="0 0 96 96" xmlns="http://www.w3.org/2000/svg" xmlns:xlink="http://www.w3.org/1999/xlink" id="Icons_PhoneVibration" overflow="hidden"><style>
.MsftOfcThm_Text2_lumMod_75_lumOff_25_Fill_v2 {
 fill:#215F9A; 
}
</style>
<path d="M52.1 82.1 21 69.2 43.8 13.9 75 26.8 52.1 82.1ZM58.8 12 65.7 14.9C66.7 15.3 67.1 16.4 66.7 17.3 66.3 18.3 65.2 18.7 64.3 18.3L57.4 15.4C56.4 15 56 13.9 56.4 13 56.7 12.1 57.8 11.6 58.8 12ZM82.7 17.8 44.7 2.1C43.7 1.7 42.7 2.2 42.3 3.1L12.3 75.7C11.9 76.7 12.4 77.7 13.3 78.1L51.3 93.8C52.3 94.2 53.3 93.7 53.7 92.8L83.6 20.2C84.1 19.3 83.6 18.2 82.7 17.8L82.7 17.8Z" class="MsftOfcThm_Text2_lumMod_75_lumOff_25_Fill_v2" fill="#215F9A"/><path d="M70.4 76.7 68.1 73.3 72.6 70.3 71.3 63.7 76.9 59.9 75.6 53.3 81.2 49.6 80.1 44.3 84 43.5 85.6 51.4 80 55.2 81.3 61.8 75.7 65.5 77.1 72.2Z" class="MsftOfcThm_Text2_lumMod_75_lumOff_25_Fill_v2" fill="#215F9A"/><path d="M11.9 52.6 10.4 44.6 16 40.9 14.6 34.3 20.2 30.5 18.9 23.9 25.6 19.4 27.9 22.7 23.4 25.7 24.7 32.3 19.1 36.1 20.4 42.7 14.8 46.5 15.9 51.8Z" class="MsftOfcThm_Text2_lumMod_75_lumOff_25_Fill_v2" fill="#215F9A"/></svg>