<svg viewBox="0 0 96 96" xmlns="http://www.w3.org/2000/svg" xmlns:xlink="http://www.w3.org/1999/xlink" id="Icons_FemaleProfile_M" overflow="hidden"><style>
.MsftOfcThm_Background1_Fill_v2 {
 fill:#FFFFFF; 
}
</style>
<g id="Icons"><path d="M27.293 51.444 27.308 51.444C27.608 51.444 34.762 51.314 38.284 49.453 38.314 49.436 38.345 49.418 38.374 49.399 39.8337 48.3281 41.2075 47.1448 42.483 45.86 42.713 45.641 42.935 45.43 43.152 45.226 44.4757 45.6601 45.8516 45.9143 47.243 45.982 47.5 45.994 47.757 46 48.012 46 49.3963 45.9969 50.7744 45.8148 52.112 45.458 52.295 45.629 52.48 45.803 52.679 45.991 53.894 47.1859 55.1808 48.3056 56.532 49.344 59.804 51.713 67.987 49.929 68.91 49.718 69.2981 49.6254 69.5941 49.311 69.663 48.918 69.73 48.5196 69.5545 48.1195 69.216 47.899 69.195 47.886 67.168 46.518 65.865 41.368 65.438 39.697 66.178 36.345 66.965 32.796 67.8244 29.482 68.3484 26.0899 68.529 22.671 68.529 17.596 67.029 14.488 63.814 12.892 62.158 12.2488 60.3423 12.1394 58.621 12.579 57.721 11.37 55.327 8.824 50.311 7.261 44.8931 5.77093 39.1038 6.51738 34.241 9.333 30.055 12.033 28.047 15.053 27.954 24.878 27.916 29.02 28.16 32.878 28.376 36.285 28.6671 39.103 28.7156 41.9407 28.521 44.767 28.2881 46.6072 27.5886 48.3572 26.489 49.851 26.1615 50.2957 26.2565 50.9217 26.7012 51.2492 26.8716 51.3747 27.0774 51.4429 27.289 51.444ZM47.335 43.984C40.1846 43.5949 34.4613 37.9078 34.027 30.76 34.0025 30.2763 34.0025 29.7917 34.027 29.308 34.0738 28.2914 34.893 27.4809 35.91 27.445 36.6301 27.4333 37.3482 27.3664 38.058 27.245 41.3094 26.8155 44.4819 25.92 47.478 24.586 50.7719 22.9287 53.8299 20.8393 56.571 18.373 56.8195 19.9311 57.3735 21.4247 58.201 22.768 58.2203 22.8001 58.2416 22.8308 58.265 22.86 58.6607 23.3317 59.1185 23.7475 59.626 24.096L59.789 24.219C59.9774 24.3652 60.1512 24.5293 60.308 24.709 61.24 25.7802 61.807 27.1202 61.927 28.535 61.9769 29.0217 62.0013 29.5107 62 30 61.9999 37.732 55.7318 43.9999 47.9998 43.9998 47.7781 43.9998 47.5564 43.9945 47.335 43.984ZM30.373 36.158C30.159 32.787 29.916 28.965 29.954 24.896 30.039 15.933 31.68 13.369 35.281 11.041 39.6608 8.51333 44.8695 7.84216 49.747 9.177 55.476 10.962 57.276 14.155 57.291 14.177 57.5146 14.6003 58.0068 14.8057 58.465 14.667 59.233 14.436 61.532 13.986 62.921 14.676 64.599 15.508 66.521 17.169 66.521 22.658 66.3362 25.9334 65.8281 29.1826 65.004 32.358 64.131 36.31 63.377 39.724 63.922 41.858 64.4108 44.1054 65.3426 46.2328 66.663 48.116 63.813 48.585 59.422 48.972 57.7 47.726 56.4908 46.7958 55.3384 45.794 54.249 44.726 60.1613 42.2205 64.0014 36.4213 64 30 64 29.4409 63.9713 28.8822 63.914 28.326 63.7504 26.4909 63.0076 24.7553 61.793 23.37 61.5507 23.0955 61.2828 22.8447 60.993 22.621L60.822 22.493C60.4746 22.2555 60.1558 21.9787 59.872 21.668 59.1706 20.5136 58.7103 19.2291 58.519 17.892 58.3656 16.8539 57.3998 16.1367 56.3617 16.2901 55.9746 16.3473 55.6147 16.5226 55.331 16.792 52.7096 19.168 49.7799 21.1798 46.621 22.773 43.7992 24.0238 40.8124 24.8627 37.752 25.264 37.1265 25.3721 36.4937 25.4319 35.859 25.443 33.7963 25.5082 32.1291 27.1458 32.027 29.207L32.027 29.207C32.001 29.759 32.002 30.315 32.027 30.862 32.3822 36.6871 35.8583 41.8652 41.115 44.4L41.104 44.411C39.9202 45.6029 38.6501 46.7059 37.304 47.711 35.204 48.798 31.418 49.211 29.148 49.36 29.8515 48.0124 30.3093 46.5502 30.5 45.042 30.7253 42.0829 30.6828 39.1095 30.373 36.158Z" class="MsftOfcThm_Background1_Fill_v2" fill="#FFFFFF"/><path d="M76.533 59.525C71.9429 55.9913 66.6845 53.4244 61.075 51.979 59.783 51.592 58.482 51.258 57.209 50.986L56.702 50.877 56.321 51.23C52.246 55 49.484 55 48 55 46.516 55 43.731 55 39.676 51.28L39.297 50.932 38.797 51.038C37.572 51.296 36.278 51.611 34.94 51.976 29.3979 53.6002 24.1705 56.1502 19.479 59.518 17.3279 61.2033 16.0501 63.7678 16 66.5L16 82 18 82 18 66.5C18.0441 64.391 19.0303 62.4126 20.688 61.108 25.1778 57.8941 30.1771 55.46 35.476 53.908 36.586 53.608 37.676 53.336 38.711 53.108 42.6 56.527 45.584 57 48 57 50.416 57 53.384 56.521 57.29 53.051 58.351 53.291 59.43 53.574 60.513 53.899 65.8678 55.2721 70.8893 57.7148 75.275 61.08 76.952 62.3851 77.9527 64.3755 78 66.5L78 82 80 82 80 66.5C79.9516 63.772 78.6784 61.2106 76.533 59.525Z" class="MsftOfcThm_Background1_Fill_v2" fill="#FFFFFF"/></g></svg>